<svg aria-hidden="true" style="position: absolute; width: 0; height: 0; overflow: hidden;" version="1.1" xmlns="http://www.w3.org/2000/svg" xmlns:xlink="http://www.w3.org/1999/xlink">
<defs>
<symbol id="icon-Logo" viewBox="0 0 106 32">
<path fill="#f1a501" style="fill: var(--color1, #f1a501)" d="M68.571 26.514l8.686 2.743 7.314-7.314 9.143 6.4 9.6-1.829-4.114-13.257-14.629 4.571-8.229-4.571-8.686 1.371 0.914 11.886z"></path>
<path d="M0.841 22.001v-1.977l5.594-1.009v2.734c0.028 1.486 0.407 2.608 1.136 3.365 0.757 0.729 1.752 1.093 2.986 1.093 1.206 0 2.159-0.392 2.86-1.178 0.729-0.785 1.094-1.837 1.094-3.154v-20.608h5.804v20.608c0 2.748-0.911 5.075-2.734 6.982s-4.15 2.86-6.982 2.86c-2.944 0-5.313-0.883-7.108-2.65-1.766-1.794-2.65-4.15-2.65-7.066z"></path>
<path d="M21.647 25.45c0-1.766 0.575-3.182 1.724-4.248s2.636-1.738 4.458-2.019l5.089-0.757c1.037-0.14 1.556-0.631 1.556-1.472 0-0.785-0.308-1.43-0.925-1.935-0.589-0.505-1.444-0.757-2.566-0.757-1.178 0-2.117 0.322-2.818 0.967-0.673 0.645-1.051 1.444-1.136 2.397l-4.963-1.051c0.196-1.794 1.079-3.379 2.65-4.752s3.645-2.061 6.224-2.061c3.084 0 5.355 0.743 6.813 2.229 1.458 1.458 2.187 3.336 2.187 5.636v10.178c0 1.234 0.084 2.327 0.252 3.28h-5.131c-0.14-0.617-0.21-1.444-0.21-2.481-1.318 2.047-3.351 3.070-6.098 3.070-2.131 0-3.855-0.617-5.173-1.851-1.29-1.234-1.935-2.692-1.935-4.374zM29.932 27.511c1.318 0 2.397-0.365 3.238-1.093 0.869-0.757 1.304-1.991 1.304-3.701v-0.925l-4.668 0.715c-1.71 0.252-2.566 1.122-2.566 2.608 0 0.673 0.238 1.248 0.715 1.724 0.477 0.449 1.136 0.673 1.977 0.673z"></path>
<path d="M61.858 0.636v26.706c0 1.374 0.056 2.622 0.168 3.743h-5.341c-0.14-0.701-0.21-1.5-0.21-2.397-0.477 0.869-1.234 1.57-2.271 2.103-1.009 0.533-2.187 0.799-3.533 0.799-2.944 0-5.369-1.023-7.276-3.070-1.879-2.075-2.818-4.682-2.818-7.823 0-3.056 0.925-5.622 2.776-7.696 1.879-2.075 4.262-3.112 7.15-3.112 2.972 0 4.921 0.855 5.846 2.566v-11.818h5.51zM46.213 20.698c0 1.822 0.477 3.266 1.43 4.332 0.953 1.037 2.187 1.556 3.701 1.556 1.486 0 2.706-0.533 3.659-1.598s1.43-2.509 1.43-4.332c0-1.794-0.477-3.196-1.43-4.206-0.953-1.037-2.173-1.556-3.659-1.556s-2.72 0.519-3.701 1.556c-0.953 1.037-1.43 2.453-1.43 4.248z"></path>
<path d="M70.113 25.072c1.037 1.037 2.285 1.556 3.743 1.556s2.692-0.519 3.701-1.556c1.037-1.037 1.556-2.481 1.556-4.332s-0.519-3.294-1.556-4.332c-1.009-1.037-2.243-1.556-3.701-1.556s-2.706 0.519-3.743 1.556c-1.009 1.037-1.514 2.481-1.514 4.332s0.505 3.294 1.514 4.332zM66.076 12.875c2.075-2.075 4.668-3.112 7.781-3.112s5.692 1.037 7.739 3.112c2.075 2.075 3.112 4.696 3.112 7.865s-1.037 5.79-3.112 7.865c-2.047 2.075-4.626 3.112-7.739 3.112s-5.706-1.037-7.781-3.112c-2.047-2.075-3.070-4.696-3.070-7.865s1.023-5.79 3.070-7.865z"></path>
<path d="M91.31 25.072c1.038 1.037 2.285 1.556 3.743 1.556s2.692-0.519 3.701-1.556c1.038-1.037 1.556-2.481 1.556-4.332s-0.518-3.294-1.556-4.332c-1.009-1.037-2.243-1.556-3.701-1.556s-2.705 0.519-3.743 1.556c-1.009 1.037-1.514 2.481-1.514 4.332s0.505 3.294 1.514 4.332zM87.272 12.875c2.075-2.075 4.668-3.112 7.781-3.112s5.691 1.037 7.739 3.112c2.075 2.075 3.112 4.696 3.112 7.865s-1.038 5.79-3.112 7.865c-2.047 2.075-4.626 3.112-7.739 3.112s-5.706-1.037-7.781-3.112c-2.047-2.075-3.070-4.696-3.070-7.865s1.023-5.79 3.070-7.865z"></path>
</symbol>
</defs>
</svg>
